<?xml version="1.0" encoding="UTF-8" standalone="no"?>
<!-- Created with Inkscape (http://www.inkscape.org/) -->

<svg
   xmlns:dc="http://purl.org/dc/elements/1.1/"
   xmlns:cc="http://creativecommons.org/ns#"
   xmlns:rdf="http://www.w3.org/1999/02/22-rdf-syntax-ns#"
   xmlns:svg="http://www.w3.org/2000/svg"
   xmlns="http://www.w3.org/2000/svg"
   xmlns:sodipodi="http://sodipodi.sourceforge.net/DTD/sodipodi-0.dtd"
   xmlns:inkscape="http://www.inkscape.org/namespaces/inkscape"
   version="1.1"
   id="svg3736"
   width="1115"
   height="301"
   viewBox="0 0 1115 301"
   sodipodi:docname="obelisco_branco.svg"
   inkscape:version="0.92.4 (5da689c313, 2019-01-14)">
  <metadata
     id="metadata3742">
    <rdf:RDF>
      <cc:Work
         rdf:about="">
        <dc:format>image/svg+xml</dc:format>
        <dc:type
           rdf:resource="http://purl.org/dc/dcmitype/StillImage" />
        <dc:title></dc:title>
      </cc:Work>
    </rdf:RDF>
  </metadata>
  <defs
     id="defs3740" />
  <sodipodi:namedview
     pagecolor="#ffffff"
     bordercolor="#666666"
     borderopacity="1"
     objecttolerance="10"
     gridtolerance="10"
     guidetolerance="10"
     inkscape:pageopacity="0"
     inkscape:pageshadow="2"
     inkscape:window-width="1366"
     inkscape:window-height="705"
     id="namedview3738"
     showgrid="false"
     inkscape:zoom="0.68340807"
     inkscape:cx="535.39524"
     inkscape:cy="202.60414"
     inkscape:window-x="-8"
     inkscape:window-y="-8"
     inkscape:window-maximized="1"
     inkscape:current-layer="layer3" />
  <g
     inkscape:groupmode="layer"
     id="layer3"
     inkscape:label="texto"
     style="display:inline">
    <path
       style="fill:#ffffff"
       d="m 729,288.50501 c -9.89759,-2.22215 -13.42527,-3.44964 -18.77294,-6.53219 l -5.27294,-3.03948 0.27294,-17.71667 L 705.5,243.5 h 3.5 3.5 l 0.5,10 c 0.34084,6.81678 1.05212,11.00919 2.23448,13.17034 3.93757,7.19719 18.48044,15.84894 28.26552,16.81553 0.55,0.0543 4.00447,-0.45396 7.6766,-1.12952 14.93646,-2.74789 23.80828,-9.8693 27.81364,-22.326 2.5765,-8.01292 2.23522,-12.16252 -1.53438,-18.65663 -4.13539,-7.12428 -9.32564,-9.64838 -39.93892,-19.42294 -15.17236,-4.8444 -23.26341,-10.82887 -27.6496,-20.45078 -2.73528,-6.00034 -2.58301,-21.51217 0.28645,-29.1815 4.08134,-10.90836 16.96774,-20.65701 30.85054,-23.33865 12.41698,-2.39849 31.99594,-1.07678 45.40618,3.06522 L 793,154.08036 V 172.04018 190 h -3.5 -3.5 v -8.46607 c 0,-10.66685 -1.5452,-14.11358 -8.31371,-18.54464 -10.96434,-7.17788 -20.10834,-8.67405 -30.11976,-4.9283 C 736.87502,162.0612 729,173.31232 729,184.58717 c 0,10.95706 7.57061,16.94904 30,23.74437 21.86951,6.6257 28.33175,9.83026 34.92245,17.3177 8.21115,9.32836 10.31414,25.77996 5.07236,39.68083 -2.59423,6.87972 -10.3253,15.19486 -17.07932,18.36962 -11.62466,5.46424 -38.93442,7.94427 -52.91549,4.80532 z m 143.04799,-0.41988 c -3.52077,-0.567 -9.70388,-2.59926 -13.74025,-4.51612 C 838.2289,274.03361 829,255.27556 829,224 c 0,-11.05038 0.39634,-14.48493 3.17343,-27.5 4.59308,-21.52586 23.24476,-40.38116 45.86168,-46.36235 4.10569,-1.08578 11.06489,-2.25065 15.46489,-2.58861 15.33979,-1.17824 37.68478,2.66206 43.89003,7.54312 l 2.65082,2.08513 -0.27043,20.16135 L 939.5,197.5 l -3.04468,0.29804 -3.04468,0.29805 -1.50798,-14.42626 c -1.44989,-13.87062 -1.6215,-14.52741 -4.45532,-17.05214 -4.20666,-3.74783 -16.093,-9.46952 -21.8608,-10.52306 -2.89644,-0.52907 -7.50806,-0.53005 -11.2339,-0.002 -21.87358,3.09768 -38.86452,22.83128 -43.46231,50.47795 -1.63109,9.80778 -2.06506,23.14565 -0.92502,28.42983 0.53397,2.475 1.2186,6.3 1.5214,8.5 0.88128,6.40294 4.36609,15.93488 7.62371,20.85299 6.47797,9.77995 17.2056,16.1506 29.67559,17.62298 6.51191,0.76888 23.42873,0.39619 26.21399,0.0222 6.08881,-0.88662 13.35746,-2.79886 18.76728,-4.91373 2.35968,-0.47663 3.50833,-2.06329 4.95422,0.87222 0.24716,1.84559 -0.37092,3.04366 -2.95448,4.01578 -1.79686,0.67611 -4.16702,1.62583 -5.26702,2.11049 -6.36836,2.3135 -17.74911,4.47723 -21.75574,5.00628 -4.87971,0.54897 -6.1478,0.48726 -15.62705,0.74218 -8.79212,0.0463 -14.37462,-0.65395 -21.06922,-1.74667 z M 1014,288.49883 c -22.79721,-5.1439 -37.77907,-19.0811 -43.76053,-40.70916 -2.51656,-9.0995 -2.5032,-42.46939 0.0207,-51.78967 6.44183,-23.7882 24.81993,-41.9832 47.12283,-46.65333 13.7199,-2.87289 34.3641,-1.73431 46.9276,2.58817 11.6562,4.01032 24.4411,15.19965 29.9035,26.17148 5.3774,10.80126 6.2959,16.50732 6.1801,38.39368 -0.1046,19.7649 -0.1435,20.11024 -3.3132,29.3782 -5.8128,16.99608 -16.2326,29.44492 -30.6314,36.59622 -3.8776,1.92589 -8.5168,3.05836 -12.4648,4.52847 -11.7524,3.4306 -29.0758,3.55802 -39.9848,1.49594 z m 33,-9.06318 c 20.6931,-8.17742 33.256,-31.8434 33.1436,-62.43565 -0.122,-33.20343 -15.6997,-57.25409 -39.4001,-60.83058 -20.3166,-3.06586 -37.9754,10.2811 -48.06743,36.33058 -4.05033,10.45468 -5.40639,32.06443 -2.85523,45.5 1.78065,9.37767 6.86258,21.41815 11.54656,27.35693 5.1422,6.51982 6.7115,7.85369 14.4355,12.27036 9.5183,5.44259 20.4039,6.07359 31.1971,1.80836 z M 71,286.39813 C 57.186741,283.93817 48.204418,279.37034 38.917315,270.08293 31.017031,262.18239 26.971495,255.34883 25.029275,246.62381 24.463174,244.08071 23.55,239.96854 23,237.48565 c -1.343228,-6.0638 -1.272767,-29.28288 0.106882,-35.2213 4.214088,-18.13869 6.219147,-22.9227 13.670894,-32.61836 6.318544,-8.22122 18.84174,-17.18085 27.693752,-19.81328 28.369489,-8.4366 59.892762,-1.85847 75.373512,15.72859 4.42017,5.02158 10.69839,17.14066 11.62425,22.4387 3.51079,20.08992 3.2272,38.75812 -0.83026,54.65333 -4.56056,17.86618 -22.30962,36.73227 -37.87511,40.2588 -0.40485,0.0917 -2.65485,0.88375 -5,1.76006 -4.18167,1.56256 -30.692621,2.80716 -36.76392,1.72594 z m 25.189216,-8.24099 C 121.43434,271.15687 136.10283,242.35118 132.93319,206 130.39867,176.93273 114.13534,156.67175 91.425023,154.28882 81.194267,153.21534 69.813812,158.08493 60.527197,167.50971 48.606981,179.60728 42.998711,195.78818 43.027363,218 c 0.02407,18.66388 3.724091,32.12538 12.119651,44.09408 4.630408,6.6011 7.882042,9.35731 15.852986,13.43759 9.264689,4.74254 15.289689,5.37053 25.189216,2.62547 z M 386.97011,286.0661 C 376.25981,284.08634 362.524,277.37753 356.81714,271.33885 347.3485,261.31969 342,243.42556 342,221.76609 c 0,-5.83743 0.47934,-13.01034 1.06519,-15.9398 0.58585,-2.92946 1.54644,-7.80129 2.13463,-10.82629 1.66309,-8.55313 7.92297,-20.71838 14.25217,-27.69725 15.91877,-17.55276 38.1594,-24.53411 63.00994,-19.77886 10.52756,2.01449 16.81779,5.03125 23.77889,11.40422 7.54312,6.90582 12.62701,16.92136 13.82071,27.22753 1.0745,9.27711 1.15438,25.95634 0.13201,27.56545 -0.58875,0.92663 -12.14041,1.28835 -47.90207,1.5 -25.91942,0.1534 -47.50091,0.65311 -47.95885,1.11047 -1.01637,1.01507 -1.09689,15.30125 -0.12495,22.16844 1.56578,11.06291 7.28,23.65434 13.6053,29.97964 7.63498,7.63498 22.1061,11.22979 34.68703,11.08743 3.48291,-0.0394 9.13405,-0.006 13.07633,-0.32212 10.51385,-1.51836 17.43147,-3.84464 24.21619,-3.99495 1.90409,2.29429 1.72868,2.69988 -1.987,4.59424 -9.1696,3.25863 -10.59864,3.92309 -20.39049,5.95791 -5.02096,0.79446 -33.7989,1.49245 -40.44492,0.26395 z m 52.38354,-79.72477 3.46565,0.01 -0.31816,-8.18248 c -0.77741,-19.99374 -9.29215,-34.21401 -20.74745,-39.93506 -12.24417,-6.11503 -27.25573,-2.42128 -39.33786,9.6795 -7.17917,7.19025 -12.16624,14.421 -14.98642,24.09757 -2.54815,8.74319 -2.58837,10.33922 -2.74686,14.41804 24.23036,0.11907 50.16241,-0.12258 74.6711,-0.0876 z M 219,284.82458 c -3.025,-0.50197 -7.92918,-1.61187 -10.89818,-2.46644 l -5.39818,-1.55376 0.52751,-92.65219 c 0.324,-56.90767 0.16413,-93.608819 -0.41438,-95.131838 -1.21812,-3.206862 -2.53699,-3.983863 -6.81677,-4.016045 -1.925,-0.01447 -5.1875,-0.305245 -7.25,-0.646155 -3.31119,-0.547305 -3.75,-0.953347 -3.75,-3.469942 0,-3.136995 -0.53715,-2.918571 11.76856,-4.785487 9.5076,-1.442411 17.12518,-1.37617 20.23144,0.17593 1.375,0.687044 3.2868,2.81791 4.24845,4.735258 1.55793,3.106243 1.74861,7.054545 1.75,36.236089 8.5e-4,18.0125 0.38834,32.75 0.86109,32.75 0.47274,0 3.51024,-1.35813 6.75,-3.01806 8.68577,-4.45028 18.8327,-6.2996 30.89046,-5.62992 27.85828,1.54723 43.53709,14.27174 50.08539,40.64798 1.47067,5.9238 1.8532,11.17781 1.82017,25 -0.0404,16.89042 -1.01605,24.09972 -4.39842,32.5 -0.44291,1.1 -1.38341,3.575 -2.08999,5.5 -5.61752,15.30429 -24.87636,30.94182 -41.91715,34.03531 -14.82493,3.55472 -30.93036,3.98628 -46,1.78927 z m 38,-7.20777 c 13.28874,-5.42939 22.09495,-13.93323 28.0662,-27.10254 12.67892,-27.96275 9.68829,-70.75978 -6.044,-86.49207 -5.41939,-5.41939 -15.29433,-10.05518 -22.88531,-10.7435 -6.8837,-0.6242 -13.47506,1.20974 -22.83165,6.3525 -11.23633,6.17595 -10.42137,1.25127 -10.27508,62.0911 0.0698,29.02774 0.36529,53.78996 0.65665,55.02716 0.75882,3.22226 5.16562,4.23143 16.81319,3.85028 8.01668,-0.26233 11.28916,-0.85394 16.5,-2.98293 z M 492.01531,284.25 c 0.0282,-3.22555 1.4949,-4.13338 8.48082,-5.24938 3.82044,-0.61032 7.18422,-1.34751 7.47506,-1.6382 0.29085,-0.29069 0.65039,-42.07493 0.79899,-92.85387 0.23194,-79.26138 0.0665,-92.529023 -1.16929,-93.764803 -0.80206,-0.802064 -4.43225,-1.718934 -8.19818,-2.070602 -5.9973,-0.560036 -8.33737,-1.634657 -8.3874,-3.851716 -0.0712,-3.153929 9.207,-5.179352 24.15598,-5.273246 6.39568,-0.233167 11.57322,0.863366 12.7437,4.720585 l 0.29251,94.615612 c 0.2206,71.35775 0.59013,95.28226 1.50328,97.32758 1.17575,2.63347 1.47961,2.72029 10.5,3 L 549.5,279.5 l 0.31336,3.25 0.31336,3.25 h -29.06336 c -27.01856,0 -29.06228,-0.12312 -29.04805,-1.75 z"
       id="path3784"
       inkscape:connector-curvature="0"
       sodipodi:nodetypes="sscccccssccssssssscccccssssssssscsssssccccccssccssssscccccccccscsscccccccsssscccsssssssscscssssssssssccssssssccscssscccccccsssscccccsccsssscsscssccsccccscsscsccccscscccscscccscc" />
  </g>
  <g
     inkscape:groupmode="layer"
     id="layer5"
     inkscape:label="obelisco"
     style="display:inline">
    <g
       style="display:inline"
       id="g3916"
       transform="translate(583.59149,9.2601281)">
      <g
         style="display:inline;opacity:1"
         inkscape:label="base"
         id="layer1">
        <path
           sodipodi:nodetypes="ccccccccccccccc"
           inkscape:connector-curvature="0"
           id="path40"
           d="m 40.890824,0.57492076 14.955441,14.00889324 6.247209,189.877296 9.844087,10.45238 -0.189309,29.87052 6.436518,8.52286 -0.189309,10.7867 L 39.565659,285.86414 1.3251656,263.52564 1.4360604,253.01618 8.140303,244.02677 8.4405072,213.96301 18.1737,205.40766 27.07124,14.583814 Z"
           style="fill:#fdf7ee;fill-opacity:1;stroke:#fdf7ee;stroke-width:0;stroke-linecap:butt;stroke-linejoin:miter;stroke-miterlimit:4;stroke-dasharray:none;stroke-opacity:1" />
      </g>
      <g
         inkscape:label="marrom_escuro"
         id="layer3-7">
        <path
           sodipodi:nodetypes="ccccc"
           inkscape:connector-curvature="0"
           id="path4779"
           d="m 55.846265,14.583814 -14.884511,8.708163 0.03109,202.934703 21.654547,-12.3153 z"
           style="fill:#9e858a;fill-opacity:1;stroke:none;stroke-width:1px;stroke-linecap:butt;stroke-linejoin:miter;stroke-opacity:1" />
        <path
           sodipodi:nodetypes="ccccc"
           inkscape:connector-curvature="0"
           id="path4781"
           d="m 71.937561,214.91349 -31.778979,17.27005 0.133862,39.5562 31.591418,-18.33909 z"
           style="fill:#9e858a;fill-opacity:1;stroke:none;stroke-width:1px;stroke-linecap:butt;stroke-linejoin:miter;stroke-opacity:1" />
        <path
           sodipodi:nodetypes="ccccc"
           inkscape:connector-curvature="0"
           id="path4783"
           d="m 78.18477,253.30687 -38.577876,22.58259 -0.04124,9.97468 38.429807,-21.77057 z"
           style="fill:#9e858a;fill-opacity:1;stroke:none;stroke-width:1px;stroke-linecap:butt;stroke-linejoin:miter;stroke-opacity:1" />
      </g>
      <g
         style="display:inline"
         inkscape:label="marrom"
         id="layer4">
        <path
           style="fill:#c1b0af;fill-opacity:1;stroke:none;stroke-width:1px;stroke-linecap:butt;stroke-linejoin:miter;stroke-opacity:1"
           d="m 8.1092158,213.96301 32.0493662,18.22053 0.133862,39.5562 -32.1295292,-19.28957 z"
           id="path4788"
           inkscape:connector-curvature="0"
           sodipodi:nodetypes="ccccc" />
        <path
           style="fill:#c1b0af;fill-opacity:1;stroke:none;stroke-width:1px;stroke-linecap:butt;stroke-linejoin:miter;stroke-opacity:1"
           d="m 1.4360604,253.01618 38.1708336,22.87328 -0.04124,9.97468 -38.2404934,-22.3385 z"
           id="path4790"
           inkscape:connector-curvature="0"
           sodipodi:nodetypes="ccccc" />
        <path
           style="fill:#c1b0aa;fill-opacity:1;stroke:none;stroke-width:1px;stroke-linecap:butt;stroke-linejoin:miter;stroke-opacity:1"
           d="m 27.07124,14.583814 13.890514,8.708163 0.03109,202.934703 -23.231202,-13.45116 z"
           id="path4786"
           inkscape:connector-curvature="0"
           sodipodi:nodetypes="ccccc" />
        <path
           inkscape:connector-curvature="0"
           id="path4797"
           d="M 40.890824,0.57492076 40.961754,23.291977 55.846265,14.583814 Z"
           style="display:inline;fill:#c1b0aa;fill-opacity:1;stroke:none;stroke-width:1px;stroke-linecap:butt;stroke-linejoin:miter;stroke-opacity:1" />
      </g>
    </g>
  </g>
</svg>
